:FULLY-SPECIFIED
:FORCE-ALL-JOINTS-BE-3DOF
:DEGREES
679
root 5.37335 16.6046 1.04601 19.8688 -20.5581 0.925133
lfemur -35.3287 31.1631 -20.3939
ltibia 94.4735 -0 0
lfoot 5.94536 -4.81598 0.213386
ltoes 3.49159 -0 0
rfemur -48.7225 -18.2912 32.9651
rtibia 67.1541 -0 0
rfoot -25.3514 -7.54569 0.487749
rtoes 1.60084 -0 0
lowerback -0.79061 -7.65384 -0.718537
upperback -2.41022 -10.2231 0.930356
thorax -1.77354 -5.10098 1.39499
lowerneck -11.6926 -5.04314 0.489924
upperneck 2.20399 -6.94549 3.21039
head 2.80038 -3.36498 0.588024
lclavicle 3.89049e-15 2.4422e-15 0
lhumerus 12.5408 -69.9221 93.3648
lradius 95.8069 -0 0
lwrist 33.1973 0 0
lhand -15.2622 -1.03544 0.0448568
lfingers 7.12502 0 0
lthumb 15.5125 33.561 0.0404581
rclavicle 3.89049e-15 2.4422e-15 0
rhumerus -58.2636 -13.7837 -53.7149
rradius 77.9749 -0 0
rwrist -22.9039 0 0
rhand -33.0264 -55.1781 -0.0488023
rfingers 7.12502 0 0
rthumb -1.87432 -86.7265 -0.0441729
680
root 5.3674 16.7227 1.19489 19.3853 -20.2059 0.907154
lfemur -34.6128 30.6696 -19.9056
ltibia 93.667 -0 0
lfoot 6.23864 -4.86512 0.276679
ltoes 3.11296 -0 0
rfemur -47.6453 -17.8206 32.2432
rtibia 66.1165 -0 0
rfoot -25.044 -7.42168 0.473144
rtoes 1.52332 -0 0
lowerback -0.788581 -7.50363 -0.635911
upperback -2.3549 -10.0226 0.933049
thorax -1.72668 -5.00123 1.35036
lowerneck -11.424 -4.88446 0.491259
upperneck 2.12692 -6.72706 3.06982
head 2.72212 -3.26012 0.554166
lclavicle 1.98783e-15 3.97568e-15 0
lhumerus 11.7269 -69.9542 90.1214
lradius 94.7636 -0 0
lwrist 32.4784 0 0
lhand -14.9488 -1.04057 0.0392627
lfingers 7.12502 0 0
lthumb 15.0898 32.7804 0.0359625
rclavicle 1.98783e-15 3.97568e-15 0
rhumerus -57.3295 -13.6811 -52.4441
rradius 76.7666 -0 0
rwrist -22.4329 0 0
rhand -32.2482 -54.1162 -0.0477614
rfingers 7.12502 0 0
rthumb -1.79717 -85.5154 -0.0437489
681
root 5.36145 16.8409 1.34376 18.7506 -19.6518 0.879922
lfemur -33.57 29.9938 -19.375
ltibia 92.296 -0 0
lfoot 6.48999 -4.88873 0.342854
ltoes 2.61366 -0 0
rfemur -46.3367 -17.247 31.3188
rtibia 64.8925 -0 0
rfoot -24.636 -7.28653 0.44189
rtoes 1.46199 -0 0
lowerback -0.788646 -7.298 -0.539376
upperback -2.28123 -9.74781 0.939484
thorax -1.66127 -4.86449 1.30047
lowerneck -11.0756 -4.68519 0.488613
upperneck 2.02127 -6.45224 2.89349
head 2.61978 -3.12814 0.512349
lclavicle 8.5181e-17 5.50916e-15 0
lhumerus 10.3636 -69.9222 85.9391
lradius 93.2409 -0 0
lwrist 31.5007 0 0
lhand -14.4955 -1.0212 0.0318908
lfingers 7.12502 0 0
lthumb 14.5679 31.7627 0.029883
rclavicle 8.5181e-17 5.50916e-15 0
rhumerus -56.0238 -13.5187 -50.8735
rradius 75.0144 -0 0
rwrist -21.8122 0 0
rhand -31.1974 -52.6833 -0.0452015
rfingers 7.12502 0 0
rthumb -1.68228 -83.8335 -0.0420808
682
root 5.35549 16.9591 1.49264 18.0151 -18.9679 0.846585
lfemur -32.3016 29.1825 -18.8128
ltibia 90.4513 -0 0
lfoot 6.70535 -4.89263 0.410192
ltoes 2.04359 -0 0
rfemur -44.8567 -16.5977 30.251
rtibia 63.5185 -0 0
rfoot -24.1498 -7.14425 0.398445
rtoes 1.41671 -0 0
lowerback -0.788997 -7.05443 -0.435185
upperback -2.19537 -9.42217 0.947574
thorax -1.58412 -4.70245 1.24713
lowerneck -10.6739 -4.46016 0.482759
upperneck 1.89706 -6.14152 2.69518
head 2.50171 -2.97893 0.46582
lclavicle -1.81747e-15 7.04264e-15 0
lhumerus 8.80031 -69.7587 80.9539
lradius 91.2962 -0 0
lwrist 30.3431 0 0
lhand -13.9494 -0.985437 0.0234696
lfingers 7.12502 0 0
lthumb 13.9799 30.5805 0.0227997
rclavicle -1.81747e-15 7.04264e-15 0
rhumerus -54.4313 -13.3024 -49.0767
rradius 72.8272 -0 0
rwrist -21.088 0 0
rhand -29.9588 -50.971 -0.0414795
rfingers 7.12502 0 0
rthumb -1.54306 -81.7505 -0.0393717
683
root 5.34954 17.0772 1.64152 17.2278 -18.2243 0.810154
lfemur -30.9082 28.2829 -18.2295
ltibia 88.2382 -0 0
lfoot 6.89232 -4.88312 0.477266
ltoes 1.44923 -0 0
rfemur -43.2685 -15.9008 29.0987
rtibia 62.0366 -0 0
rfoot -23.6082 -6.99884 0.347246
rtoes 1.38692 -0 0
lowerback -0.788005 -6.78989 -0.329035
upperback -2.10323 -9.06838 0.955444
thorax -1.5017 -4.52648 1.19205
lowerneck -10.2442 -4.22342 0.474516
upperneck 1.76378 -5.81437 2.48777
head 2.37584 -2.82187 0.4176
lclavicle -3.72012e-15 8.57612e-15 0
lhumerus 7.28392 -69.3996 75.3858
lradius 89.0008 -0 0
lwrist 29.084 0 0
lhand -13.356 -0.941127 0.0146643
lfingers 7.12502 0 0
lthumb 13.3575 29.3064 0.015267
rclavicle -3.72012e-15 8.57612e-15 0
rhumerus -52.6432 -13.0402 -47.1331
rradius 70.3298 -0 0
rwrist -20.3059 0 0
rhand -28.6167 -49.0772 -0.0369805
rfingers 7.12502 0 0
rthumb -1.39222 -79.3515 -0.0358563
684
root 5.34358 17.1954 1.79039 16.434 -17.4875 0.773406
lfemur -29.4872 27.3428 -17.6355
ltibia 85.79 -0 0
lfoot 7.06006 -4.86695 0.542999
ltoes 0.871965 -0 0
rfemur -41.6383 -15.1855 27.9197
rtibia 60.4973 -0 0
rfoot -23.0351 -6.85453 0.292639
rtoes 1.37198 -0 0
lowerback -0.784303 -6.52048 -0.22587
upperback -2.01032 -8.70804 0.96155
thorax -1.41997 -4.34732 1.13683
lowerneck -9.81052 -3.98791 0.464726
upperneck 1.63012 -5.48874 2.28291
head 2.24954 -2.66558 0.370388
lclavicle -5.62278e-15 1.01096e-14 0
lhumerus 5.96514 -68.8 69.5491
lradius 86.4535 -0 0
lwrist 27.8005 0 0
lhand -12.7582 -0.895644 0.00605995
lfingers 7.12502 0 0
lthumb 12.7306 28.0115 0.00780053
rclavicle -5.62278e-15 1.01096e-14 0
rhumerus -50.759 -12.7441 -45.1278
rradius 67.6695 -0 0
rwrist -19.5097 0 0
rhand -27.2535 -47.1069 -0.0321261
rfingers 7.12502 0 0
rthumb -1.24133 -76.747 -0.0318347
685
root 5.33763 17.3135 1.93927 15.6753 -16.8199 0.738843
lfemur -28.1303 26.4093 -17.0418
ltibia 83.2761 -0 0
lfoot 7.2193 -4.85132 0.606693
ltoes 0.347375 -0 0
rfemur -40.0344 -14.4815 26.7698
rtibia 58.9598 -0 0
rfoot -22.4551 -6.71593 0.238825
rtoes 1.37131 -0 0
lowerback -0.776809 -6.26126 -0.129795
upperback -1.9217 -8.36131 0.964727
thorax -1.34435 -4.175 1.08292
lowerneck -9.3953 -3.7653 0.454236
upperneck 1.50383 -5.18082 2.09083
head 2.12945 -2.51784 0.326518
lclavicle -7.52543e-15 1.16431e-14 0
lhumerus 4.92507 -67.9514 63.8184
lradius 83.7902 -0 0
lwrist 26.567 0 0
lhand -12.1958 -0.85573 -0.0018468
lfingers 7.12502 0 0
lthumb 12.127 26.7648 0.000863109
rclavicle -7.52543e-15 1.16431e-14 0
rhumerus -48.8854 -12.4295 -43.1503
rradius 65.0169 -0 0
rwrist -18.7415 0 0
rhand -25.9477 -45.1705 -0.0273699
rfingers 7.12502 0 0
rthumb -1.10062 -74.0781 -0.0276908
686
root 5.33167 17.4317 2.08815 14.9894 -16.2793 0.708715
lfemur -26.9223 25.5286 -16.4596
ltibia 80.9038 -0 0
lfoot 7.38237 -4.84392 0.668025
ltoes -0.0946545 0 0
rfemur -38.5258 -13.8184 25.7022
rtibia 57.4925 -0 0
rfoot -21.8934 -6.58811 0.18983
rtoes 1.38465 -0 0
lowerback -0.764694 -6.02615 -0.0440842
upperback -1.84196 -8.04692 0.964175
thorax -1.27967 -4.01879 1.03164
lowerneck -9.01906 -3.566 0.443884
upperneck 1.39165 -4.90505 1.92035
head 2.02157 -2.38557 0.287972
lclavicle -9.42808e-15 1.31766e-14 0
lhumerus 4.20332 -66.8958 58.565
lradius 81.188 -0 0
lwrist 25.4536 0 0
lhand -11.7054 -0.82752 -0.00864969
lfingers 7.12502 0 0
lthumb 11.5719 25.6314 -0.0051467
rclavicle -9.42808e-15 1.31766e-14 0
rhumerus -47.1343 -12.1153 -41.2912
rradius 62.5611 -0 0
rwrist -18.0408 0 0
rhand -24.7731 -43.3807 -0.0231814
rfingers 7.12502 0 0
rthumb -0.978912 -71.5162 -0.0238897
687
root 5.32572 17.5499 2.23702 14.4106 -15.9202 0.685092
lfemur -25.941 24.7453 -15.8994
ltibia 78.9115 -0 0
lfoot 7.56328 -4.85299 0.72702
ltoes -0.428888 0 0
rfemur -37.1809 -13.2244 24.7667
rtibia 56.1709 -0 0
rfoot -21.3758 -6.47655 0.149497
rtoes 1.41223 -0 0
lowerback -0.747283 -5.82812 0.0287137
upperback -1.7753 -7.78224 0.959383
thorax -1.23035 -3.88731 0.984174
lowerneck -8.70079 -3.39932 0.434491
upperneck 1.2995 -4.67434 1.77909
head 1.93126 -2.275 0.256426
lclavicle -1.13307e-14 1.471e-14 0
lhumerus 3.82107 -65.7256 54.0944
lradius 78.86 -0 0
lwrist 24.5263 0 0
lhand -11.3209 -0.816697 -0.0140263
lfingers 7.12502 0 0
lthumb 11.0885 24.6726 -0.00989914
rclavicle -1.13307e-14 1.471e-14 0
rhumerus -45.6191 -11.8233 -39.6398
rradius 60.5009 -0 0
rwrist -17.4447 0 0
rhand -23.7982 -41.8491 -0.0200266
rfingers 7.12502 0 0
rthumb -0.883917 -69.2553 -0.0209507
688
root 5.31977 17.668 2.3859 13.9707 -15.7959 0.669991
lfemur -25.2596 24.1032 -15.3707
ltibia 77.5561 -0 0
lfoot 7.77777 -4.88739 0.783983
ltoes -0.632853 0 0
rfemur -36.0655 -12.7262 24.0105
rtibia 55.0749 -0 0
rfoot -20.9275 -6.38701 0.121488
rtoes 1.45484 -0 0
lowerback -0.723914 -5.67942 0.0865726
upperback -1.72566 -7.58373 0.949978
thorax -1.20053 -3.78869 0.941524
lowerneck -8.45834 -3.27383 0.426852
upperneck 1.23275 -4.50052 1.67386
head 1.86348 -2.19182 0.233358
lclavicle -1.32334e-14 1.62435e-14 0
lhumerus 3.79862 -64.5719 50.6204
lradius 77.0423 -0 0
lwrist 23.8475 0 0
lhand -11.0743 -0.828806 -0.0177239
lfingers 7.12502 0 0
lthumb 10.6979 23.9461 -0.0131287
rclavicle -1.32334e-14 1.62435e-14 0
rhumerus -44.4519 -11.5768 -38.2815
rradius 59.0362 -0 0
rwrist -16.9887 0 0
rhand -23.0874 -40.6844 -0.0183487
rfingers 7.12502 0 0
rthumb -0.822609 -67.5003 -0.0194043
689
root 5.31381 17.7862 2.53478 13.7011 -15.9622 0.665553
lfemur -24.9503 23.6455 -14.8806
ltibia 77.0983 -0 0
lfoot 8.04354 -4.95667 0.839415
ltoes -0.684105 0 0
rfemur -35.242 -12.3486 23.4786
rtibia 54.2848 -0 0
rfoot -20.5728 -6.32529 0.109315
rtoes 1.51402 -0 0
lowerback -0.693722 -5.59204 0.127689
upperback -1.69687 -7.46749 0.935525
thorax -1.19445 -3.7309 0.904515
lowerneck -8.3091 -3.19782 0.421735
upperneck 1.19664 -4.39507 1.61124
head 1.82303 -2.14159 0.220194
lclavicle -1.5136e-14 1.7777e-14 0
lhumerus 4.16982 -63.5824 48.2785
lradius 75.9746 -0 0
lwrist 23.4782 0 0
lhand -10.9981 -0.869705 -0.0195382
lfingers 7.12502 0 0
lthumb 10.4202 23.5081 -0.0146195
rclavicle -1.5136e-14 1.7777e-14 0
rhumerus -43.7419 -11.3994 -37.2965
rradius 58.3634 -0 0
rwrist -16.7071 0 0
rhand -22.7034 -39.9915 -0.0185553
rfingers 7.12502 0 0
rthumb -0.801905 -66.4549 -0.0197427
690
root 5.30786 17.9044 2.68365 13.6353 -16.4813 0.674285
lfemur -25.0906 23.4162 -14.4318
ltibia 77.7862 -0 0
lfoot 8.38038 -5.07127 0.893887
ltoes -0.556639 0 0
rfemur -34.7699 -12.1143 23.2158
rtibia 53.8765 -0 0
rfoot -20.3338 -6.29688 0.116392
rtoes 1.59204 -0 0
lowerback -0.655375 -5.57831 0.150088
upperback -1.69297 -7.45007 0.915247
thorax -1.21678 -3.72218 0.873766
lowerneck -8.27088 -3.18004 0.41988
upperneck 1.19679 -4.37002 1.59831
head 1.81497 -2.13012 0.218512
lclavicle -1.70387e-14 1.93105e-14 0
lhumerus 4.99678 -62.8964 47.1618
lradius 75.8794 -0 0
lwrist 23.481 0 0
lhand -11.1272 -0.946168 -0.0192839
lfingers 7.12502 0 0
lthumb 10.2753 23.4152 -0.0141817
rclavicle -1.70387e-14 1.93105e-14 0
rhumerus -43.5956 -11.3146 -36.7607
rradius 58.6743 -0 0
rwrist -16.6347 0 0
rhand -22.7111 -39.8733 -0.0210112
rfingers 7.12502 0 0
rthumb -0.829536 -66.309 -0.0223707
691
root 5.3019 18.0225 2.83253 13.8118 -17.4275 0.699371
lfemur -25.7699 23.4621 -14.0214
ltibia 79.8327 -0 0
lfoot 8.81034 -5.24256 0.947893
ltoes -0.216425 0 0
rfemur -34.7054 -12.0445 23.2688
rtibia 53.9161 -0 0
rfoot -20.2299 -6.30655 0.146097
rtoes 1.69199 -0 0
lowerback -0.60675 -5.65165 0.151127
upperback -1.71845 -7.54954 0.887692
thorax -1.27312 -3.77149 0.849665
lowerneck -8.36312 -3.23048 0.422006
upperneck 1.23996 -4.43919 1.64365
head 1.84504 -2.1641 0.230281
lclavicle -1.89413e-14 2.0844e-14 0
lhumerus 6.38913 -62.6202 47.3601
lradius 76.9385 -0 0
lwrist 23.9244 0 0
lhand -11.5022 -1.06663 -0.0167579
lfingers 7.12502 0 0
lthumb 10.284 23.7285 -0.0116208
rclavicle -1.89413e-14 2.0844e-14 0
rhumerus -44.1172 -11.3444 -36.7473
rradius 60.1544 -0 0
rwrist -16.8085 0 0
rhand -23.1824 -40.4337 -0.0260315
rfingers 7.12502 0 0
rthumb -0.91514 -67.2278 -0.0275538
